HIERARCHY
ROOT root
{
	OFFSET	0	13.1	24.9
	CHANNELS 6  Xposition Yposition Zposition Xrotation Yrotation Zrotation
	JOINT spine_1
	{
		OFFSET	0	9.99999	0
		CHANNELS 3  Xrotation Yrotation Zrotation
		JOINT spine_2
		{
			OFFSET	0	112	-10
			CHANNELS 3  Xrotation Yrotation Zrotation
			JOINT spine_3
			{
				OFFSET	0	206.5	19.3
				CHANNELS 3  Xrotation Yrotation Zrotation
				JOINT spine_4
				{
					OFFSET	0	110.4	14.6
					CHANNELS 3  Xrotation Yrotation Zrotation
					JOINT neck_1
					{
						OFFSET	0	71.8	-50.3
						CHANNELS 3  Xrotation Yrotation Zrotation
						JOINT neck_2
						{
							OFFSET	0	86.2	-25.8
							CHANNELS 3  Xrotation Yrotation Zrotation
							JOINT head_ee
							{
								OFFSET	0	179.8	-8.7
								CHANNELS 3  Xrotation Yrotation Zrotation
								End Site
								{
									OFFSET	1	0	0
								}
							}
						}
					}
					JOINT left_clavicle
					{
						OFFSET	-43.2	22.4	-70.8
						CHANNELS 3  Xrotation Yrotation Zrotation
						JOINT left_shoulder
						{
							OFFSET	-93.9	-5.79999	48.7
							CHANNELS 3  Xrotation Yrotation Zrotation
							JOINT left_elbow
							{
								OFFSET	-291.4	-30.8	15.2
								CHANNELS 3  Xrotation Yrotation Zrotation
								JOINT left_lowarm_twist
								{
									OFFSET	-110.7	-3.89999	13.6
									CHANNELS 3  Xrotation Yrotation Zrotation
									JOINT left_hand
									{
										OFFSET	-110.7	-3.89999	13.6
										CHANNELS 3  Xrotation Yrotation Zrotation
										JOINT left_ee
										{
											OFFSET	-80.8	-5.10001	12.1
											CHANNELS 3  Xrotation Yrotation Zrotation
											End Site
											{
												OFFSET	1	0	0
											}
										}
									}
								}
							}
						}
					}
					JOINT right_clavicle
					{
						OFFSET	43.2	22.4	-70.8
						CHANNELS 3  Xrotation Yrotation Zrotation
						JOINT right_shoulder
						{
							OFFSET	93.9	-5.79999	48.7
							CHANNELS 3  Xrotation Yrotation Zrotation
							JOINT right_elbow
							{
								OFFSET	291.4	-30.8	15.2
								CHANNELS 3  Xrotation Yrotation Zrotation
								JOINT right_lowarm_twist
								{
									OFFSET	110.7	-3.89999	13.6
									CHANNELS 3  Xrotation Yrotation Zrotation
									JOINT right_hand
									{
										OFFSET	110.7	-3.89999	13.6
										CHANNELS 3  Xrotation Yrotation Zrotation
										JOINT right_ee
										{
											OFFSET	80.8	-5.10001	12.1
											CHANNELS 3  Xrotation Yrotation Zrotation
											End Site
											{
												OFFSET	1	0	0
											}
										}
									}
								}
							}
						}
					}
				}
			}
		}
	}
	JOINT left_hip
	{
		OFFSET	-82.8	-127.5	0.300001
		CHANNELS 3  Xrotation Yrotation Zrotation
		JOINT left_knee
		{
			OFFSET	-28.2	-396.7	2.2
			CHANNELS 3  Xrotation Yrotation Zrotation
			JOINT left_ankle
			{
				OFFSET	-11.7	-411.3	35.4
				CHANNELS 3  Xrotation Yrotation Zrotation
				JOINT left_toes
				{
					OFFSET	0	-60	-88.6
					CHANNELS 3  Xrotation Yrotation Zrotation
					JOINT left_foot_ee
					{
						OFFSET	-22.5	-16.5	-42.2
						CHANNELS 3  Xrotation Yrotation Zrotation
						End Site
						{
							OFFSET	1	0	0
						}
					}
				}
			}
		}
	}
	JOINT right_hip
	{
		OFFSET	82.8	-127.5	0.300001
		CHANNELS 3  Xrotation Yrotation Zrotation
		JOINT right_knee
		{
			OFFSET	28.2	-396.7	2.2
			CHANNELS 3  Xrotation Yrotation Zrotation
			JOINT right_ankle
			{
				OFFSET	11.7	-411.3	35.4
				CHANNELS 3  Xrotation Yrotation Zrotation
				JOINT right_toes
				{
					OFFSET	0	-60	-88.6
					CHANNELS 3  Xrotation Yrotation Zrotation
					JOINT right_foot_ee
					{
						OFFSET	22.5	-16.5	-42.2
						CHANNELS 3  Xrotation Yrotation Zrotation
						End Site
						{
							OFFSET	1	0	0
						}
					}
				}
			}
		}
	}
}
MOTION
Frames: 9
Frame Time: 0.02
2055.69 684.2 -396.333 20.0099 -84.3485 19.2129 -2.05869 0.0681482 0.347946 -2.05863 0.0458695 0.351578 -2.05827 -0.0417212 0.352094 -2.05844 0.0144087 0.354264 -7.2563 -1.26733 -12.2797 -6.81288 6.50843 -12.5578 -0.0 0.0 -0.0 1.82651 24.0611 5.24952 -7.17866 -20.6359 68.6873 0.191173 -5.41001 0.00903226 -13.7005 -0.678882 1.61071 1.26112 28.0415 18.1485 -0.0 0.0 -0.0 11.0509 1.43293 -21.9313 21.0816 15.4554 -62.1481 1.34746 33.721 -0.408391 20.3876 -0.262272 2.57742 0.724165 -8.62699 -8.28688 0.0 0.0 0.0 32.6134 -18.1137 1.34437 -56.1206 -1.79596 8.08436 -11.6364 23.537 1.79829 39.9086 -0.0 -0.0 -0.0 0.0 -0.0 11.6613 5.65025 -4.55508 -30.2532 -0.0342833 -4.58907 35.8827 -10.3883 4.4998 14.4674 -0.0 -0.0 0.0 0.0 0.0 
2063.46 684.985 -395.146 12.2716 -83.0747 11.6457 -1.86509 0.0119897 0.391015 -1.865 -0.0129157 0.390985 -1.86502 -0.107106 0.376251 -1.86521 -0.0463409 0.388444 -7.95278 -0.595057 -11.6016 -7.55979 7.13556 -11.6758 -0.0 0.0 -0.0 1.64782 23.8087 4.99216 -7.9006 -20.4979 68.7541 0.175435 -4.96696 0.00760896 -14.1392 -0.706888 1.65937 1.23913 29.4522 18.4018 -0.0 0.0 -0.0 11.0457 1.4306 -21.9201 22.1077 14.5208 -61.015 1.48483 36.3336 -0.487257 20.2953 -0.263164 2.56566 0.757996 -7.61243 -8.11465 0.0 0.0 0.0 33.1552 -17.8432 1.58055 -53.9884 -1.58698 7.83074 -9.77568 22.9661 1.50343 40.1147 -0.0 -0.0 -0.0 0.0 -0.0 10.7132 5.44164 -4.72764 -27.7432 -0.123867 -4.21431 33.8428 -9.83717 4.29578 13.1077 -0.0 -0.0 0.0 0.0 0.0 
2078.89 683.71 -393.29 13.6004 -81.9675 13.0442 -1.84402 -0.0384984 0.220974 -1.84399 -0.0524815 0.218076 -1.84418 -0.1036 0.198944 -1.84423 -0.0708806 0.212809 -8.23518 -0.622828 -10.4109 -7.92126 6.18555 -10.465 -0.0 0.0 -0.0 1.67935 23.7943 5.03427 -9.66264 -20.1585 68.1562 0.173753 -4.91958 0.00746403 -14.8748 -0.754683 1.74048 1.2479 29.7517 18.5307 -0.0 0.0 -0.0 11.0046 1.32277 -21.8269 22.7785 14.1358 -60.3441 1.60013 38.3994 -0.557245 19.6382 -0.268965 2.48192 0.768384 -6.50772 -7.75128 0.0 0.0 0.0 35.1778 -17.5726 0.736916 -51.3225 -1.33929 7.50314 -8.51014 22.4663 1.30371 38.3775 -0.0 -0.0 -0.0 0.0 -0.0 8.49565 6.46997 -5.0272 -26.1639 -0.17178 -3.97667 36.1468 -7.3426 4.5109 12.2919 -0.0 -0.0 0.0 0.0 0.0 
2097.11 681.723 -391.655 16.6982 -81.2879 16.6789 -1.98805 -0.0180885 0.0516099 -1.98805 -0.0213359 0.0503542 -1.98807 -0.0329759 0.0436275 -1.98807 -0.0256719 0.0482879 -9.17181 -0.582919 -8.53407 -8.96506 4.8006 -8.52749 -0.0 0.0 -0.0 1.38581 23.5952 4.62085 -10.4545 -19.5617 68.0404 0.176523 -4.99762 0.00770352 -15.3396 -0.785418 1.79141 1.307 29.6511 18.8409 -0.0 0.0 -0.0 11.0635 0.895226 -21.9271 23.6468 13.3624 -59.9306 1.75495 40.9984 -0.656166 19.3949 -0.27087 2.45091 0.850232 -4.3343 -7.43509 0.0 0.0 0.0 37.138 -16.5215 0.732161 -48.1036 -1.06105 7.09299 -7.87934 23.2416 1.21011 37.0349 -0.0 -0.0 -0.0 0.0 -0.0 6.58265 5.31839 -6.2509 -26.6022 -0.159141 -4.04275 37.4364 -6.69143 4.63026 11.3953 -0.0 -0.0 0.0 0.0 0.0 
2112.89 672.92 -390.996 16.9339 -80.6041 17.3185 -1.89949 0.0235146 0.0104206 -1.89949 0.0228039 0.0118958 -1.89948 0.0192391 0.01707 -1.89948 0.0216935 0.0138173 -8.7373 -0.61714 -8.34905 -8.53781 4.66694 -8.37815 -0.0 0.0 -0.0 1.26719 23.7403 4.46907 -11.6552 -19.7009 67.5104 0.182375 -5.1624 0.00822168 -15.7285 -0.811455 1.83385 1.36743 29.6642 19.1894 -0.0 0.0 -0.0 11.0893 0.860713 -21.9797 24.1135 13.4211 -59.4542 1.9213 43.5795 -0.768128 19.0383 -0.273423 2.40544 0.862786 -4.26632 -7.49154 0.0 0.0 0.0 38.6957 -16.2041 0.70326 -44.527 -0.779597 6.62006 -7.48491 22.0372 1.14286 35.441 -0.0 -0.0 -0.0 0.0 -0.0 4.72297 7.79208 -7.40806 -25.0189 -0.202408 -3.80362 39.0929 -4.53359 4.77863 11.4155 -0.0 -0.0 0.0 0.0 0.0 
2131.45 663.99 -390.611 14.4854 -79.4512 14.8603 -1.71416 -0.0952642 -0.173442 -1.71415 -0.0840346 -0.179152 -1.71387 -0.0387177 -0.194058 -1.71391 -0.0688795 -0.185507 -7.88701 -0.550434 -6.14835 -7.77729 3.33766 -6.2234 -0.0 0.0 -0.0 1.00317 23.5767 4.09645 -12.6318 -19.5239 67.6928 0.17515 -4.95892 0.00758425 -17.8163 -0.956138 2.05859 1.6947 29.8354 21.1157 -0.0 0.0 -0.0 10.9544 1.49942 -21.73 24.7684 13.3481 -59.2038 2.13955 46.659 -0.922829 19.0209 -0.27354 2.40321 1.09546 -3.60441 -8.78076 0.0 0.0 0.0 39.625 -15.6614 1.26394 -42.7564 -0.651375 6.37978 -10.7834 22.6812 1.65843 33.8892 -0.0 -0.0 -0.0 0.0 -0.0 3.28206 9.13906 -8.22023 -26.7035 -0.156148 -4.05801 40.3548 -6.93861 4.89138 11.5525 -0.0 -0.0 0.0 0.0 0.0 
2150.86 656.392 -388.432 15.8569 -79.2741 16.259 -1.74045 0.0661075 -0.256202 -1.74042 0.0822763 -0.251477 -1.74077 0.140176 -0.224412 -1.74082 0.102975 -0.243733 -7.86266 -0.665322 -4.75261 -7.79739 2.13314 -4.86075 -0.0 0.0 -0.0 0.932359 23.695 4.00933 -13.2192 -18.7592 67.2796 0.190767 -5.39859 0.00899395 -18.4017 -0.998172 2.12065 2.05186 30.066 23.2553 -0.0 0.0 -0.0 10.7488 2.13621 -21.3252 24.5906 13.634 -58.6052 2.31844 48.9466 -1.05538 18.9047 -0.274307 2.38839 0.949026 -3.76581 -7.86695 0.0 0.0 0.0 39.6344 -15.3475 1.28611 -37.9027 -0.338757 5.70242 -11.9404 25.2169 1.86114 32.6659 -0.0 -0.0 -0.0 0.0 -0.0 1.13727 9.75534 -8.89607 -26.1826 -0.171252 -3.97949 40.9704 -5.61496 4.94118 12.7766 -0.0 -0.0 0.0 0.0 0.0 
2170.84 655.719 -391.324 15.8814 -78.7845 16.3491 -1.72386 0.0907596 -0.267695 -1.72383 0.10761 -0.261377 -1.72431 0.167079 -0.227997 -1.72436 0.128974 -0.251523 -7.75431 -1.04529 -4.06968 -7.70699 0.946979 -4.26552 -0.0 0.0 -0.0 0.91771 23.8761 4.00418 -13.6094 -18.1312 67.291 0.227074 -6.41813 0.0127314 -18.7339 -1.02231 2.15568 2.53222 29.8468 26.0919 -0.0 0.0 -0.0 10.6763 1.84267 -21.1577 23.2045 13.322 -57.9442 2.54056 51.5215 -1.22617 18.3803 -0.277391 2.32148 1.06221 -4.08666 -8.74881 0.0 0.0 0.0 36.5914 -15.9802 0.644792 -29.3344 0.0689845 4.45233 -11.3736 24.5117 1.76537 31.5 -0.0 -0.0 -0.0 0.0 -0.0 -0.405919 9.44854 -9.22635 -26.8093 -0.152994 -4.07394 40.6022 -5.683 4.90999 14.6813 -0.0 -0.0 0.0 0.0 0.0 
2187.71 652.197 -392.737 21.605 -78.3538 22.5171 -2.00855 0.028341 -0.418493 -2.00845 0.0549131 -0.415841 -2.00878 0.154849 -0.389822 -2.00898 0.0913409 -0.409385 -8.51519 -0.699006 -2.33459 -8.49972 0.325655 -2.46089 -0.0 0.0 -0.0 0.912544 23.3868 3.95698 -13.7689 -17.4575 68.0443 0.235906 -6.66555 0.0137377 -18.5392 -1.00814 2.13517 2.91607 30.0389 28.4931 -0.0 0.0 -0.0 10.5063 2.05643 -20.8077 22.5331 13.2635 -58.0111 2.70301 53.237 -1.35484 17.9548 -0.279443 2.26718 1.27749 -3.70851 -10.0412 0.0 0.0 0.0 35.5708 -16.2672 0.876921 -22.3817 0.259748 3.40303 -10.4822 25.1047 1.63014 29.6758 -0.0 -0.0 -0.0 0.0 -0.0 -1.90695 9.84136 -9.77074 -28.7015 -0.0916079 -4.35783 40.2613 -4.15515 4.88079 15.1112 -0.0 -0.0 0.0 0.0 0.0 
